<svg width="32" height="32" viewBox="0 0 32 32" fill="none" xmlns="http://www.w3.org/2000/svg">
  <defs>
    <linearGradient id="logoGradient" x1="0%" y1="0%" x2="100%" y2="100%">
      <stop offset="0%" style="stop-color:#3b82f6;stop-opacity:1" />
      <stop offset="100%" style="stop-color:#1d4ed8;stop-opacity:1" />
    </linearGradient>
  </defs>
  
  <!-- Main book/learning shape -->
  <path d="M6 4C5.44772 4 5 4.44772 5 5V27C5 27.5523 5.44772 28 6 28H26C26.5523 28 27 27.5523 27 27V5C27 4.44772 26.5523 4 26 4H6Z" fill="url(#logoGradient)" opacity="0.15"/>
  
  <!-- Left page -->
  <path d="M6 5C5.44772 5 5 5.44772 5 6V26C5 26.5523 5.44772 27 6 27V5Z" fill="url(#logoGradient)" stroke="url(#logoGradient)" stroke-width="1.5" stroke-linecap="round" stroke-linejoin="round"/>
  
  <!-- Right page -->
  <path d="M27 5C27.5523 5 28 5.44772 28 6V26C28 26.5523 27.5523 27 27 27V5Z" fill="url(#logoGradient)" stroke="url(#logoGradient)" stroke-width="1.5" stroke-linecap="round" stroke-linejoin="round"/>
  
  <!-- Center spine with glow -->
  <line x1="16" y1="6" x2="16" y2="26" stroke="url(#logoGradient)" stroke-width="2.5" stroke-linecap="round" opacity="0.9"/>
  
  <!-- Top accent line -->
  <line x1="9" y1="10" x2="23" y2="10" stroke="url(#logoGradient)" stroke-width="1.5" stroke-linecap="round" opacity="0.7"/>
  
  <!-- Middle decorative lines -->
  <line x1="9" y1="16" x2="23" y2="16" stroke="url(#logoGradient)" stroke-width="1" stroke-linecap="round" opacity="0.5"/>
  <line x1="9" y1="20" x2="19" y2="20" stroke="url(#logoGradient)" stroke-width="1" stroke-linecap="round" opacity="0.5"/>
</svg>
